<svg width="134" height="64" viewBox="0 0 134 64" fill="none" xmlns="http://www.w3.org/2000/svg">
<rect y="3.55554" width="56.8947" height="56.8889" rx="13" fill="#86BEFF"/>
<path d="M27.5027 52.384C23.2467 52.384 19.8387 51.584 17.2787 49.984C14.7187 48.352 13.4387 45.872 13.4387 42.544C13.4387 40.784 13.7427 39.44 14.3507 38.512C14.9587 37.584 15.8547 37.12 17.0387 37.12C17.9027 37.12 18.6067 37.344 19.1507 37.792C19.6947 38.24 19.9667 38.816 19.9667 39.52C19.9667 40.16 19.9187 40.72 19.8227 41.2C19.8227 41.328 19.7907 41.552 19.7267 41.872C19.6947 42.192 19.6787 42.528 19.6787 42.88C19.6787 44.32 20.3987 45.392 21.8387 46.096C23.3107 46.8 25.3587 47.152 27.9827 47.152C30.7027 47.152 32.8307 46.672 34.3667 45.712C35.9027 44.72 36.6707 43.344 36.6707 41.584C36.6707 40.496 36.3187 39.568 35.6147 38.8C34.9107 38 34.0307 37.344 32.9747 36.832C31.9187 36.288 30.4307 35.632 28.5107 34.864C26.0467 33.904 24.0307 32.992 22.4627 32.128C20.9267 31.264 19.5987 30.096 18.4787 28.624C17.3907 27.12 16.8467 25.264 16.8467 23.056C16.8467 20.752 17.4547 18.704 18.6707 16.912C19.9187 15.12 21.6947 13.728 23.9987 12.736C26.3347 11.744 29.0707 11.248 32.2067 11.248C34.5427 11.248 36.6867 11.6 38.6387 12.304C40.5907 12.976 42.1427 14.016 43.2947 15.424C44.4787 16.832 45.0707 18.56 45.0707 20.608C45.0707 22.624 44.7667 24.144 44.1587 25.168C43.5507 26.192 42.6547 26.704 41.4707 26.704C40.6387 26.704 39.9347 26.448 39.3587 25.936C38.8147 25.424 38.5427 24.816 38.5427 24.112C38.5427 23.504 38.5907 22.944 38.6867 22.432C38.7827 21.472 38.8307 20.864 38.8307 20.608C38.8307 19.264 38.1747 18.24 36.8627 17.536C35.5507 16.832 33.9187 16.48 31.9667 16.48C29.2147 16.48 27.1027 16.992 25.6307 18.016C24.1907 19.008 23.4707 20.416 23.4707 22.24C23.4707 23.456 23.8387 24.496 24.5747 25.36C25.3427 26.224 26.2867 26.944 27.4067 27.52C28.5267 28.096 30.0947 28.784 32.1107 29.584C34.5427 30.576 36.4947 31.472 37.9667 32.272C39.4387 33.072 40.6867 34.16 41.7107 35.536C42.7667 36.912 43.2947 38.608 43.2947 40.624C43.2947 44.4 41.8547 47.312 38.9747 49.36C36.1267 51.376 32.3027 52.384 27.5027 52.384Z" fill="#3300FF"/>
<path d="M71.4191 36.648C71.6271 36.648 71.7871 36.744 71.8991 36.936C72.0271 37.128 72.0911 37.392 72.0911 37.728C72.0911 38.368 71.9391 38.864 71.6351 39.216C70.9471 40.064 70.1951 40.76 69.3791 41.304C68.5631 41.848 67.6271 42.12 66.5711 42.12C63.3071 42.12 61.6751 39.824 61.6751 35.232C61.6751 34.528 61.6991 33.816 61.7471 33.096H60.8111C60.3311 33.096 60.0031 33.008 59.8271 32.832C59.6671 32.656 59.5871 32.376 59.5871 31.992C59.5871 31.096 59.9471 30.648 60.6671 30.648H62.0351C62.3071 28.888 62.7231 27.28 63.2831 25.824C63.8431 24.368 64.5151 23.208 65.2991 22.344C66.0991 21.48 66.9551 21.048 67.8671 21.048C68.5391 21.048 69.0671 21.344 69.4511 21.936C69.8351 22.528 70.0271 23.272 70.0271 24.168C70.0271 26.648 68.9871 28.808 66.9071 30.648H69.5951C69.8511 30.648 70.0351 30.704 70.1471 30.816C70.2591 30.928 70.3151 31.136 70.3151 31.44C70.3151 32.544 69.4111 33.096 67.6031 33.096H64.6751C64.6431 33.896 64.6271 34.52 64.6271 34.968C64.6271 36.632 64.8191 37.8 65.2031 38.472C65.6031 39.144 66.2271 39.48 67.0751 39.48C67.7631 39.48 68.3711 39.272 68.8991 38.856C69.4271 38.44 70.0511 37.816 70.7711 36.984C70.9631 36.76 71.1791 36.648 71.4191 36.648ZM67.2191 23.352C66.9791 23.352 66.7071 23.656 66.4031 24.264C66.1151 24.856 65.8351 25.688 65.5631 26.76C65.3071 27.816 65.0911 28.992 64.9151 30.288C65.8591 29.472 66.5631 28.56 67.0271 27.552C67.5071 26.528 67.7471 25.6 67.7471 24.768C67.7471 23.824 67.5711 23.352 67.2191 23.352ZM82.377 34.632C82.585 34.632 82.745 34.736 82.857 34.944C82.969 35.152 83.025 35.416 83.025 35.736C83.025 36.504 82.793 36.96 82.329 37.104C81.369 37.44 80.313 37.632 79.161 37.68C78.857 39.024 78.257 40.104 77.361 40.92C76.465 41.72 75.449 42.12 74.313 42.12C73.353 42.12 72.529 41.888 71.841 41.424C71.169 40.96 70.657 40.344 70.305 39.576C69.953 38.808 69.777 37.976 69.777 37.08C69.777 35.864 70.009 34.784 70.473 33.84C70.937 32.88 71.577 32.136 72.393 31.608C73.209 31.064 74.113 30.792 75.105 30.792C76.321 30.792 77.297 31.216 78.033 32.064C78.785 32.896 79.225 33.928 79.353 35.16C80.105 35.112 81.001 34.952 82.041 34.68C82.169 34.648 82.281 34.632 82.377 34.632ZM74.505 39.576C75.017 39.576 75.457 39.368 75.825 38.952C76.209 38.536 76.465 37.936 76.593 37.152C76.097 36.816 75.713 36.376 75.441 35.832C75.185 35.288 75.057 34.712 75.057 34.104C75.057 33.848 75.081 33.592 75.129 33.336H75.009C74.369 33.336 73.833 33.648 73.401 34.272C72.985 34.88 72.777 35.744 72.777 36.864C72.777 37.744 72.945 38.416 73.281 38.88C73.633 39.344 74.041 39.576 74.505 39.576ZM82.6691 42.12C82.0611 42.12 81.6291 41.8 81.3731 41.16C81.1331 40.52 81.0131 39.496 81.0131 38.088C81.0131 36.008 81.3091 34.032 81.9011 32.16C82.0451 31.696 82.2771 31.36 82.5971 31.152C82.9331 30.928 83.3971 30.816 83.9891 30.816C84.3091 30.816 84.5331 30.856 84.6611 30.936C84.7891 31.016 84.8531 31.168 84.8531 31.392C84.8531 31.648 84.7331 32.224 84.4931 33.12C84.3331 33.76 84.2051 34.32 84.1091 34.8C84.0131 35.28 83.9331 35.872 83.8691 36.576C84.3971 35.2 84.9891 34.08 85.6451 33.216C86.3011 32.352 86.9411 31.736 87.5651 31.368C88.2051 31 88.7891 30.816 89.3171 30.816C90.3571 30.816 90.8771 31.336 90.8771 32.376C90.8771 32.584 90.8051 33.088 90.6611 33.888C90.5331 34.528 90.4691 34.928 90.4691 35.088C90.4691 35.648 90.6691 35.928 91.0691 35.928C91.5171 35.928 92.0931 35.576 92.7971 34.872C93.0051 34.664 93.2211 34.56 93.4451 34.56C93.6531 34.56 93.8131 34.656 93.9251 34.848C94.0531 35.024 94.1171 35.264 94.1171 35.568C94.1171 36.16 93.9571 36.624 93.6371 36.96C93.1891 37.424 92.6611 37.824 92.0531 38.16C91.4611 38.48 90.8291 38.64 90.1571 38.64C89.3091 38.64 88.6611 38.424 88.2131 37.992C87.7811 37.56 87.5651 36.976 87.5651 36.24C87.5651 36 87.5891 35.76 87.6371 35.52C87.6691 35.2 87.6851 34.984 87.6851 34.872C87.6851 34.616 87.5971 34.488 87.4211 34.488C87.1811 34.488 86.8611 34.76 86.4611 35.304C86.0771 35.832 85.6931 36.536 85.3091 37.416C84.9251 38.296 84.6131 39.224 84.3731 40.2C84.1971 40.952 83.9891 41.464 83.7491 41.736C83.5251 41.992 83.1651 42.12 82.6691 42.12ZM95.031 29.232C94.359 29.232 93.855 29.08 93.519 28.776C93.183 28.456 93.015 28.016 93.015 27.456C93.015 26.896 93.231 26.432 93.663 26.064C94.111 25.68 94.663 25.488 95.319 25.488C95.911 25.488 96.391 25.632 96.759 25.92C97.127 26.208 97.311 26.616 97.311 27.144C97.311 27.784 97.103 28.296 96.687 28.68C96.271 29.048 95.719 29.232 95.031 29.232ZM94.839 42.12C93.799 42.12 93.039 41.752 92.559 41.016C92.095 40.28 91.863 39.304 91.863 38.088C91.863 37.368 91.951 36.448 92.127 35.328C92.319 34.192 92.559 33.136 92.847 32.16C92.991 31.648 93.183 31.296 93.423 31.104C93.663 30.912 94.047 30.816 94.575 30.816C95.391 30.816 95.799 31.088 95.799 31.632C95.799 32.032 95.647 32.96 95.343 34.416C94.959 36.176 94.767 37.368 94.767 37.992C94.767 38.472 94.831 38.84 94.959 39.096C95.087 39.352 95.303 39.48 95.607 39.48C95.895 39.48 96.255 39.28 96.687 38.88C97.119 38.48 97.695 37.848 98.415 36.984C98.607 36.76 98.823 36.648 99.063 36.648C99.271 36.648 99.431 36.744 99.543 36.936C99.671 37.128 99.735 37.392 99.735 37.728C99.735 38.368 99.583 38.864 99.279 39.216C97.695 41.152 96.215 42.12 94.839 42.12ZM100.241 42.12C99.5212 42.12 98.9292 41.792 98.4652 41.136C98.0172 40.464 97.7932 39.632 97.7932 38.64C97.7932 37.44 97.8732 36.344 98.0332 35.352C98.1932 34.344 98.4572 33.28 98.8252 32.16C98.9852 31.68 99.2092 31.336 99.4972 31.128C99.7852 30.92 100.241 30.816 100.865 30.816C101.217 30.816 101.457 30.872 101.585 30.984C101.729 31.096 101.801 31.264 101.801 31.488C101.801 31.616 101.713 32.048 101.537 32.784C101.377 33.376 101.249 33.912 101.153 34.392C100.833 36.072 100.673 37.192 100.673 37.752C100.673 38.088 100.713 38.328 100.793 38.472C100.873 38.6 101.001 38.664 101.177 38.664C101.417 38.664 101.713 38.424 102.065 37.944C102.433 37.464 102.817 36.736 103.217 35.76C103.633 34.784 104.033 33.584 104.417 32.16C104.545 31.68 104.737 31.336 104.993 31.128C105.265 30.92 105.665 30.816 106.193 30.816C106.561 30.816 106.817 30.864 106.961 30.96C107.105 31.04 107.177 31.2 107.177 31.44C107.177 31.84 106.977 32.936 106.577 34.728C106.129 36.776 105.905 38.04 105.905 38.52C105.905 38.824 105.969 39.064 106.097 39.24C106.225 39.4 106.393 39.48 106.601 39.48C106.921 39.48 107.297 39.288 107.729 38.904C108.177 38.504 108.769 37.864 109.505 36.984C109.697 36.76 109.913 36.648 110.153 36.648C110.361 36.648 110.521 36.744 110.633 36.936C110.761 37.128 110.825 37.392 110.825 37.728C110.825 38.368 110.673 38.864 110.369 39.216C109.681 40.064 108.937 40.76 108.137 41.304C107.353 41.848 106.457 42.12 105.449 42.12C104.681 42.12 104.113 41.824 103.745 41.232C103.393 40.64 103.217 39.808 103.217 38.736C102.945 39.824 102.537 40.664 101.993 41.256C101.449 41.832 100.865 42.12 100.241 42.12ZM110.583 42.12C109.975 42.12 109.543 41.8 109.287 41.16C109.047 40.52 108.927 39.496 108.927 38.088C108.927 36.008 109.223 34.032 109.815 32.16C109.959 31.696 110.191 31.36 110.511 31.152C110.847 30.928 111.311 30.816 111.903 30.816C112.223 30.816 112.447 30.856 112.575 30.936C112.703 31.016 112.767 31.168 112.767 31.392C112.767 31.648 112.647 32.224 112.407 33.12C112.247 33.76 112.119 34.32 112.023 34.8C111.927 35.264 111.847 35.848 111.783 36.552C112.215 35.304 112.727 34.248 113.319 33.384C113.927 32.52 114.543 31.88 115.167 31.464C115.807 31.032 116.407 30.816 116.967 30.816C117.527 30.816 117.919 30.944 118.143 31.2C118.383 31.456 118.503 31.848 118.503 32.376C118.503 32.888 118.351 33.816 118.047 35.16C117.919 35.736 117.831 36.168 117.783 36.456C118.311 35.112 118.895 34.016 119.535 33.168C120.191 32.32 120.831 31.72 121.455 31.368C122.079 31 122.655 30.816 123.183 30.816C123.695 30.816 124.079 30.952 124.335 31.224C124.607 31.48 124.743 31.864 124.743 32.376C124.743 32.792 124.655 33.576 124.479 34.728C124.319 35.704 124.191 36.632 124.095 37.512C123.999 38.376 123.951 39.344 123.951 40.416C123.951 41.024 123.823 41.464 123.567 41.736C123.327 41.992 122.927 42.12 122.367 42.12C121.839 42.12 121.455 41.984 121.215 41.712C120.975 41.44 120.855 41.032 120.855 40.488C120.855 39.848 120.967 38.792 121.191 37.32C121.383 36.04 121.479 35.224 121.479 34.872C121.479 34.616 121.391 34.488 121.215 34.488C121.007 34.488 120.711 34.76 120.327 35.304C119.943 35.832 119.559 36.536 119.175 37.416C118.791 38.296 118.479 39.224 118.239 40.2C118.063 40.968 117.855 41.48 117.615 41.736C117.391 41.992 117.023 42.12 116.511 42.12C115.983 42.12 115.583 41.872 115.311 41.376C115.055 40.864 114.927 40.248 114.927 39.528C114.927 38.92 115.007 38.04 115.167 36.888C115.295 35.864 115.359 35.192 115.359 34.872C115.359 34.616 115.271 34.488 115.095 34.488C114.855 34.488 114.551 34.776 114.183 35.352C113.815 35.928 113.455 36.664 113.103 37.56C112.767 38.456 112.495 39.336 112.287 40.2C112.111 40.952 111.903 41.464 111.663 41.736C111.439 41.992 111.079 42.12 110.583 42.12Z" fill="#846F00"/>
<path d="M58 45C58 44.4477 58.4477 44 59 44H126C126.552 44 127 44.4477 127 45V51C127 51.5523 126.552 52 126 52H59C58.4477 52 58 51.5523 58 51V45Z" fill="#86BEFF"/>
</svg>
