<svg width="69" height="72" viewBox="0 0 69 72" fill="none" xmlns="http://www.w3.org/2000/svg">
<g clip-path="url(#clip0)">
<rect width="54.0912" height="54.101" rx="15" transform="matrix(0.706824 0.707389 -0.716567 0.697518 34.767 -2)" fill="black"/>
<path d="M17.8869 41.096C16.8229 41.096 15.9709 40.896 15.3309 40.496C14.6909 40.088 14.3709 39.468 14.3709 38.636C14.3709 38.196 14.4469 37.86 14.5989 37.628C14.7509 37.396 14.9749 37.28 15.2709 37.28C15.4869 37.28 15.6629 37.336 15.7989 37.448C15.9349 37.56 16.0029 37.704 16.0029 37.88C16.0029 38.04 15.9909 38.18 15.9669 38.3C15.9669 38.332 15.9589 38.388 15.9429 38.468C15.9349 38.548 15.9309 38.632 15.9309 38.72C15.9309 39.08 16.1109 39.348 16.4709 39.524C16.8389 39.7 17.3509 39.788 18.0069 39.788C18.6869 39.788 19.2189 39.668 19.6029 39.428C19.9869 39.18 20.1789 38.836 20.1789 38.396C20.1789 38.124 20.0909 37.892 19.9149 37.7C19.7389 37.5 19.5189 37.336 19.2549 37.208C18.9909 37.072 18.6189 36.908 18.1389 36.716C17.5229 36.476 17.0189 36.248 16.6269 36.032C16.2429 35.816 15.9109 35.524 15.6309 35.156C15.3589 34.78 15.2229 34.316 15.2229 33.764C15.2229 33.188 15.3749 32.676 15.6789 32.228C15.9909 31.78 16.4349 31.432 17.0109 31.184C17.5949 30.936 18.2789 30.812 19.0629 30.812C19.6469 30.812 20.1829 30.9 20.6709 31.076C21.1589 31.244 21.5469 31.504 21.8349 31.856C22.1309 32.208 22.2789 32.64 22.2789 33.152C22.2789 33.656 22.2029 34.036 22.0509 34.292C21.8989 34.548 21.6749 34.676 21.3789 34.676C21.1709 34.676 20.9949 34.612 20.8509 34.484C20.7149 34.356 20.6469 34.204 20.6469 34.028C20.6469 33.876 20.6589 33.736 20.6829 33.608C20.7069 33.368 20.7189 33.216 20.7189 33.152C20.7189 32.816 20.5549 32.56 20.2269 32.384C19.8989 32.208 19.4909 32.12 19.0029 32.12C18.3149 32.12 17.7869 32.248 17.4189 32.504C17.0589 32.752 16.8789 33.104 16.8789 33.56C16.8789 33.864 16.9709 34.124 17.1549 34.34C17.3469 34.556 17.5829 34.736 17.8629 34.88C18.1429 35.024 18.5349 35.196 19.0389 35.396C19.6469 35.644 20.1349 35.868 20.5029 36.068C20.8709 36.268 21.1829 36.54 21.4389 36.884C21.7029 37.228 21.8349 37.652 21.8349 38.156C21.8349 39.1 21.4749 39.828 20.7549 40.34C20.0429 40.844 19.0869 41.096 17.8869 41.096ZM28.094 38.324C28.198 38.324 28.278 38.372 28.334 38.468C28.398 38.564 28.43 38.696 28.43 38.864C28.43 39.184 28.354 39.432 28.202 39.608C27.858 40.032 27.482 40.38 27.074 40.652C26.666 40.924 26.198 41.06 25.67 41.06C24.038 41.06 23.222 39.912 23.222 37.616C23.222 37.264 23.234 36.908 23.258 36.548H22.79C22.55 36.548 22.386 36.504 22.298 36.416C22.218 36.328 22.178 36.188 22.178 35.996C22.178 35.548 22.358 35.324 22.718 35.324H23.402C23.538 34.444 23.746 33.64 24.026 32.912C24.306 32.184 24.642 31.604 25.034 31.172C25.434 30.74 25.862 30.524 26.318 30.524C26.654 30.524 26.918 30.672 27.11 30.968C27.302 31.264 27.398 31.636 27.398 32.084C27.398 33.324 26.878 34.404 25.838 35.324H27.182C27.31 35.324 27.402 35.352 27.458 35.408C27.514 35.464 27.542 35.568 27.542 35.72C27.542 36.272 27.09 36.548 26.186 36.548H24.722C24.706 36.948 24.698 37.26 24.698 37.484C24.698 38.316 24.794 38.9 24.986 39.236C25.186 39.572 25.498 39.74 25.922 39.74C26.266 39.74 26.57 39.636 26.834 39.428C27.098 39.22 27.41 38.908 27.77 38.492C27.866 38.38 27.974 38.324 28.094 38.324ZM25.994 31.676C25.874 31.676 25.738 31.828 25.586 32.132C25.442 32.428 25.302 32.844 25.166 33.38C25.038 33.908 24.93 34.496 24.842 35.144C25.314 34.736 25.666 34.28 25.898 33.776C26.138 33.264 26.258 32.8 26.258 32.384C26.258 31.912 26.17 31.676 25.994 31.676ZM33.573 37.316C33.677 37.316 33.757 37.368 33.813 37.472C33.869 37.576 33.897 37.708 33.897 37.868C33.897 38.252 33.781 38.48 33.549 38.552C33.069 38.72 32.541 38.816 31.965 38.84C31.813 39.512 31.513 40.052 31.065 40.46C30.617 40.86 30.109 41.06 29.541 41.06C29.061 41.06 28.649 40.944 28.305 40.712C27.969 40.48 27.713 40.172 27.537 39.788C27.361 39.404 27.273 38.988 27.273 38.54C27.273 37.932 27.389 37.392 27.621 36.92C27.853 36.44 28.173 36.068 28.581 35.804C28.989 35.532 29.441 35.396 29.937 35.396C30.545 35.396 31.033 35.608 31.401 36.032C31.777 36.448 31.997 36.964 32.061 37.58C32.437 37.556 32.885 37.476 33.405 37.34C33.469 37.324 33.525 37.316 33.573 37.316ZM29.637 39.788C29.893 39.788 30.113 39.684 30.297 39.476C30.489 39.268 30.617 38.968 30.681 38.576C30.433 38.408 30.241 38.188 30.105 37.916C29.977 37.644 29.913 37.356 29.913 37.052C29.913 36.924 29.925 36.796 29.949 36.668H29.889C29.569 36.668 29.301 36.824 29.085 37.136C28.877 37.44 28.773 37.872 28.773 38.432C28.773 38.872 28.857 39.208 29.025 39.44C29.201 39.672 29.405 39.788 29.637 39.788ZM33.719 41.06C33.415 41.06 33.199 40.9 33.071 40.58C32.951 40.26 32.891 39.748 32.891 39.044C32.891 38.004 33.039 37.016 33.335 36.08C33.407 35.848 33.523 35.68 33.683 35.576C33.851 35.464 34.083 35.408 34.379 35.408C34.539 35.408 34.651 35.428 34.715 35.468C34.779 35.508 34.811 35.584 34.811 35.696C34.811 35.824 34.751 36.112 34.631 36.56C34.551 36.88 34.487 37.16 34.439 37.4C34.391 37.64 34.351 37.936 34.319 38.288C34.583 37.6 34.879 37.04 35.207 36.608C35.535 36.176 35.855 35.868 36.167 35.684C36.487 35.5 36.779 35.408 37.043 35.408C37.563 35.408 37.823 35.668 37.823 36.188C37.823 36.292 37.787 36.544 37.715 36.944C37.651 37.264 37.619 37.464 37.619 37.544C37.619 37.824 37.719 37.964 37.919 37.964C38.143 37.964 38.431 37.788 38.783 37.436C38.887 37.332 38.995 37.28 39.107 37.28C39.211 37.28 39.291 37.328 39.347 37.424C39.411 37.512 39.443 37.632 39.443 37.784C39.443 38.08 39.363 38.312 39.203 38.48C38.979 38.712 38.715 38.912 38.411 39.08C38.115 39.24 37.799 39.32 37.463 39.32C37.039 39.32 36.715 39.212 36.491 38.996C36.275 38.78 36.167 38.488 36.167 38.12C36.167 38 36.179 37.88 36.203 37.76C36.219 37.6 36.227 37.492 36.227 37.436C36.227 37.308 36.183 37.244 36.095 37.244C35.975 37.244 35.815 37.38 35.615 37.652C35.423 37.916 35.231 38.268 35.039 38.708C34.847 39.148 34.691 39.612 34.571 40.1C34.483 40.476 34.379 40.732 34.259 40.868C34.147 40.996 33.967 41.06 33.719 41.06ZM39.9 34.616C39.564 34.616 39.312 34.54 39.144 34.388C38.976 34.228 38.892 34.008 38.892 33.728C38.892 33.448 39 33.216 39.216 33.032C39.44 32.84 39.716 32.744 40.044 32.744C40.34 32.744 40.58 32.816 40.764 32.96C40.948 33.104 41.04 33.308 41.04 33.572C41.04 33.892 40.936 34.148 40.728 34.34C40.52 34.524 40.244 34.616 39.9 34.616ZM39.804 41.06C39.284 41.06 38.904 40.876 38.664 40.508C38.432 40.14 38.316 39.652 38.316 39.044C38.316 38.684 38.36 38.224 38.448 37.664C38.544 37.096 38.664 36.568 38.808 36.08C38.88 35.824 38.976 35.648 39.096 35.552C39.216 35.456 39.408 35.408 39.672 35.408C40.08 35.408 40.284 35.544 40.284 35.816C40.284 36.016 40.208 36.48 40.056 37.208C39.864 38.088 39.768 38.684 39.768 38.996C39.768 39.236 39.8 39.42 39.864 39.548C39.928 39.676 40.036 39.74 40.188 39.74C40.332 39.74 40.512 39.64 40.728 39.44C40.944 39.24 41.232 38.924 41.592 38.492C41.688 38.38 41.796 38.324 41.916 38.324C42.02 38.324 42.1 38.372 42.156 38.468C42.22 38.564 42.252 38.696 42.252 38.864C42.252 39.184 42.176 39.432 42.024 39.608C41.232 40.576 40.492 41.06 39.804 41.06ZM42.5051 41.06C42.1451 41.06 41.8491 40.896 41.6171 40.568C41.3931 40.232 41.2811 39.816 41.2811 39.32C41.2811 38.72 41.3211 38.172 41.4011 37.676C41.4811 37.172 41.6131 36.64 41.7971 36.08C41.8771 35.84 41.9891 35.668 42.1331 35.564C42.2771 35.46 42.5051 35.408 42.8171 35.408C42.9931 35.408 43.1131 35.436 43.1771 35.492C43.2491 35.548 43.2851 35.632 43.2851 35.744C43.2851 35.808 43.2411 36.024 43.1531 36.392C43.0731 36.688 43.0091 36.956 42.9611 37.196C42.8011 38.036 42.7211 38.596 42.7211 38.876C42.7211 39.044 42.7411 39.164 42.7811 39.236C42.8211 39.3 42.8851 39.332 42.9731 39.332C43.0931 39.332 43.2411 39.212 43.4171 38.972C43.6011 38.732 43.7931 38.368 43.9931 37.88C44.2011 37.392 44.4011 36.792 44.5931 36.08C44.6571 35.84 44.7531 35.668 44.8811 35.564C45.0171 35.46 45.2171 35.408 45.4811 35.408C45.6651 35.408 45.7931 35.432 45.8651 35.48C45.9371 35.52 45.9731 35.6 45.9731 35.72C45.9731 35.92 45.8731 36.468 45.6731 37.364C45.4491 38.388 45.3371 39.02 45.3371 39.26C45.3371 39.412 45.3691 39.532 45.4331 39.62C45.4971 39.7 45.5811 39.74 45.6851 39.74C45.8451 39.74 46.0331 39.644 46.2491 39.452C46.4731 39.252 46.7691 38.932 47.1371 38.492C47.2331 38.38 47.3411 38.324 47.4611 38.324C47.5651 38.324 47.6451 38.372 47.7011 38.468C47.7651 38.564 47.7971 38.696 47.7971 38.864C47.7971 39.184 47.7211 39.432 47.5691 39.608C47.2251 40.032 46.8531 40.38 46.4531 40.652C46.0611 40.924 45.6131 41.06 45.1091 41.06C44.7251 41.06 44.4411 40.912 44.2571 40.616C44.0811 40.32 43.9931 39.904 43.9931 39.368C43.8571 39.912 43.6531 40.332 43.3811 40.628C43.1091 40.916 42.8171 41.06 42.5051 41.06ZM47.676 41.06C47.372 41.06 47.156 40.9 47.028 40.58C46.908 40.26 46.848 39.748 46.848 39.044C46.848 38.004 46.996 37.016 47.292 36.08C47.364 35.848 47.48 35.68 47.64 35.576C47.808 35.464 48.04 35.408 48.336 35.408C48.496 35.408 48.608 35.428 48.672 35.468C48.736 35.508 48.768 35.584 48.768 35.696C48.768 35.824 48.708 36.112 48.588 36.56C48.508 36.88 48.444 37.16 48.396 37.4C48.348 37.632 48.308 37.924 48.276 38.276C48.492 37.652 48.748 37.124 49.044 36.692C49.348 36.26 49.656 35.94 49.968 35.732C50.288 35.516 50.588 35.408 50.868 35.408C51.148 35.408 51.344 35.472 51.456 35.6C51.576 35.728 51.636 35.924 51.636 36.188C51.636 36.444 51.56 36.908 51.408 37.58C51.344 37.868 51.3 38.084 51.276 38.228C51.54 37.556 51.832 37.008 52.152 36.584C52.48 36.16 52.8 35.86 53.112 35.684C53.424 35.5 53.712 35.408 53.976 35.408C54.232 35.408 54.424 35.476 54.552 35.612C54.688 35.74 54.756 35.932 54.756 36.188C54.756 36.396 54.712 36.788 54.624 37.364C54.544 37.852 54.48 38.316 54.432 38.756C54.384 39.188 54.36 39.672 54.36 40.208C54.36 40.512 54.296 40.732 54.168 40.868C54.048 40.996 53.848 41.06 53.568 41.06C53.304 41.06 53.112 40.992 52.992 40.856C52.872 40.72 52.812 40.516 52.812 40.244C52.812 39.924 52.868 39.396 52.98 38.66C53.076 38.02 53.124 37.612 53.124 37.436C53.124 37.308 53.08 37.244 52.992 37.244C52.888 37.244 52.74 37.38 52.548 37.652C52.356 37.916 52.164 38.268 51.972 38.708C51.78 39.148 51.624 39.612 51.504 40.1C51.416 40.484 51.312 40.74 51.192 40.868C51.08 40.996 50.896 41.06 50.64 41.06C50.376 41.06 50.176 40.936 50.04 40.688C49.912 40.432 49.848 40.124 49.848 39.764C49.848 39.46 49.888 39.02 49.968 38.444C50.032 37.932 50.064 37.596 50.064 37.436C50.064 37.308 50.02 37.244 49.932 37.244C49.812 37.244 49.66 37.388 49.476 37.676C49.292 37.964 49.112 38.332 48.936 38.78C48.768 39.228 48.632 39.668 48.528 40.1C48.44 40.476 48.336 40.732 48.216 40.868C48.104 40.996 47.924 41.06 47.676 41.06Z" fill="#AD00FF"/>
</g>
<defs>
<clipPath id="clip0">
<rect width="69" height="72" fill="white"/>
</clipPath>
</defs>
</svg>
